<svg xmlns="http://www.w3.org/2000/svg" version="1.1" xmlns:xlink="http://www.w3.org/1999/xlink" xmlns:svgjs="http://svgjs.dev/svgjs" width="1000" height="348" viewBox="0 0 1000 348"><g transform="matrix(1,0,0,1,-0.6060568592773734,0.046213950768162704)"><svg viewBox="0 0 396 138" data-background-color="#ffffff" preserveAspectRatio="xMidYMid meet" height="348" width="1000" xmlns="http://www.w3.org/2000/svg" xmlns:xlink="http://www.w3.org/1999/xlink"><g id="tight-bounds" transform="matrix(1,0,0,1,0.23999851627382895,-0.01832301107560852)"><svg viewBox="0 0 395.52 138.03664923293198" height="138.03664923293198" width="395.52"><g><svg viewBox="0 0 697.4115320123076 243.39692307692312" height="138.03664923293198" width="395.52"><g><svg viewBox="0 0 395.52 243.39692307692312" height="243.39692307692312" width="395.52"><g id="textblocktransform"><svg viewBox="0 0 395.52 243.39692307692312" height="243.39692307692312" width="395.52" id="textblock"><g><svg viewBox="0 0 395.52 243.39692307692312" height="243.39692307692312" width="395.52"><g transform="matrix(1,0,0,1,0,0)"><svg width="395.52" viewBox="4.349999904632568 -32.79999923706055 53.30000305175781 32.79999923706055" height="243.39692307692312" data-palette-color="#001f3f"><path d="M12.65 0L4.35 0 4.35-32.8 12.45-32.8Q19.9-32.8 23.78-28.6 27.65-24.4 27.65-16.55L27.65-16.55Q27.65-8.7 23.78-4.35 19.9 0 12.65 0L12.65 0ZM8.5-29.4L8.5-3.4 12.15-3.4Q17.8-3.4 20.58-6.85 23.35-10.3 23.35-16.55L23.35-16.55Q23.35-22.8 20.58-26.1 17.8-29.4 12.15-29.4L12.15-29.4 8.5-29.4ZM39.15 0L35 0 35-32.8 45.2-32.8Q47.7-32.8 49.8-32.33 51.9-31.85 53.42-30.75 54.95-29.65 55.8-27.9 56.65-26.15 56.65-23.6L56.65-23.6Q56.65-19.75 54.65-17.45 52.65-15.15 49.3-14.3L49.3-14.3 57.65 0 52.9 0 45-13.85 39.15-13.85 39.15 0ZM39.15-29.45L39.15-17.25 44.6-17.25Q48.45-17.25 50.47-18.82 52.5-20.4 52.5-23.6L52.5-23.6Q52.5-26.85 50.47-28.15 48.45-29.45 44.6-29.45L44.6-29.45 39.15-29.45Z" opacity="1" transform="matrix(1,0,0,1,0,0)" fill="#001f3f" class="wordmark-text-0" data-fill-palette-color="primary" id="text-0"></path></svg></g></svg></g></svg></g></svg></g><g transform="matrix(1,0,0,1,452.98017201230766,21.704932105655743)"><svg viewBox="0 0 244.43135999999998 199.98705886561163" height="199.98705886561163" width="244.43135999999998"><g><svg xmlns="http://www.w3.org/2000/svg" xmlns:xlink="http://www.w3.org/1999/xlink" version="1.1" x="0" y="0" viewBox="4.39900016784668 16.100000381469727 89.10099792480469 72.9000015258789" enable-background="new 0 0 100 100" xml:space="preserve" height="199.98705886561163" width="244.43135999999998" class="icon-icon-0" data-fill-palette-color="accent" id="icon-0"><g fill="#636365" data-fill-palette-color="accent"><polygon points="4.399,89 93.5,89 93.5,16.1 53,16.1 53,24.2 85.399,24.2 85.399,80.899 12.5,80.899 12.5,56.601 4.399,56.601  " fill="#636365" data-fill-palette-color="accent"></polygon><rect x="4.401" y="24.2" width="40.5" height="8.099" fill="#636365" data-fill-palette-color="accent"></rect></g></svg></g></svg></g></svg></g><defs></defs></svg><rect width="395.52" height="138.03664923293198" fill="none" stroke="none" visibility="hidden"></rect></g></svg></g></svg>